<svg width="96" height="96" xmlns="http://www.w3.org/2000/svg" xmlns:xlink="http://www.w3.org/1999/xlink" xml:space="preserve" overflow="hidden"><g transform="translate(-322 -417)"><path d="M390 447.2C387.6 447.2 385.6 445.2 385.7 442.7 385.7 440.3 387.7 438.3 390.1 438.3 392.5 438.3 394.5 440.3 394.5 442.7 394.5 443.9 394 445 393.2 445.8 392.3 446.7 391.2 447.2 390 447.2ZM385.7 433.3C383.5 434.1 381.8 435.8 380.7 437.8 379.3 440.5 379.1 443.6 380.2 446.4L385 456.8 388.2 463.4C388.5 464.1 389.2 464.5 390 464.5 390.8 464.5 391.5 464.1 391.8 463.4L395 456.8 399.8 446.5C400.3 445.3 400.5 444 400.5 442.7 400.5 435.7 393.3 430.4 385.7 433.3Z" fill="#FFFFFF"/><path d="M368 489.8 352 481.8 352 449.2 368 457.2 368 489.8ZM348 481.8 336 487.8 336 455.2 348 449.2 348 481.8ZM403.4 448.2 403.4 448.2 400.9 453.6 404 455.2 404 487.8 392 481.8 392 468.5 388 468.5 388 481.8 372 489.8 372 457.2 379.1 453.6 376.6 448.2 370 451.5 350 441.5 330 451.5 330 497.5 350 487.5 370 497.5 390 487.5 410 497.5 410 451.5 403.4 448.2Z" fill="#FFFFFF"/></g></svg>